<svg width="1440" height="1024" viewBox="0 0 1440 1024" fill="none" xmlns="http://www.w3.org/2000/svg">
<rect width="1440" height="1024" rx="20" fill="#D4D4D4"/>
<path d="M249.686 175.686L276.455 182.859L256.859 202.455L249.686 175.686Z" fill="#ED33B9"/>
<path d="M682.851 213.534L684.463 233.387L666.464 224.857L682.851 213.534Z" fill="#FFF129"/>
<path d="M514.109 815.703L538.052 820.097L522.274 838.635L514.109 815.703Z" fill="#FFF129"/>
<path d="M1375.24 69.595L1375.55 89.5112L1358.14 79.8204L1375.24 69.595Z" fill="#51E5FF"/>
<path d="M930.657 932.613L931.132 963.274L904.342 948.355L930.657 932.613Z" fill="#51E5FF"/>
<path d="M770.137 598.186L782.475 630.593L748.241 625.074L770.137 598.186Z" fill="#ED33B9"/>
<path d="M99.5694 746.179L78.1444 778.972L60.4576 744.021L99.5694 746.179Z" fill="#ED33B9"/>
<path d="M1050.54 131.55L1022.35 174.696L999.075 128.71L1050.54 131.55Z" fill="#23CE6B"/>
<path d="M615.057 846.821L655.864 845.375L636.713 881.438L615.057 846.821Z" fill="#23CE6B"/>
<path d="M933.709 287.486L958.31 300.7L934.566 315.398L933.709 287.486Z" fill="#ED33B9"/>
<path d="M332.394 904.224L299.788 945.519L280.329 896.634L332.394 904.224Z" fill="#51E5FF"/>
<path d="M1117.9 391.041L1074.48 403.323L1085.56 359.58L1117.9 391.041Z" fill="#FFF129"/>
<path d="M442.866 644.888L433.191 672.698L413.944 650.414L442.866 644.888Z" fill="#ED33B9"/>
<path d="M1361.76 724.757L1332.29 733.349L1339.58 703.526L1361.76 724.757Z" fill="#FFF129"/>
<path d="M386.205 86.6299L393.042 121.09L359.78 109.782L386.205 86.6299Z" fill="#FFF129"/>
<path d="M555.633 57.1043L524.958 58.4304L539.147 31.2021L555.633 57.1043Z" fill="#23CE6B"/>
<path d="M394.368 492.368L413.608 497.524L399.523 511.608L394.368 492.368Z" fill="#51E5FF"/>
<path d="M144.235 951.114L167.266 933.347L171.136 962.176L144.235 951.114Z" fill="#ED33B9"/>
<path d="M87.2687 143.307L83.1694 164.983L66.447 150.595L87.2687 143.307Z" fill="#23CE6B"/>
<path d="M303.601 398.913L336.946 418.864L302.995 437.765L303.601 398.913Z" fill="#51E5FF"/>
<path d="M796.249 362.777L830.522 367.487L809.306 394.813L796.249 362.777Z" fill="#51E5FF"/>
<path d="M1249.6 629.814L1266.76 665.835L1226.98 662.693L1249.6 629.814Z" fill="#51E5FF"/>
<path d="M1371.6 937.831L1399.52 972.92L1355.18 979.555L1371.6 937.831Z" fill="#23CE6B"/>
<circle cx="375.657" cy="291.657" r="10.6574" fill="#FFF129"/>
<circle cx="564.657" cy="370.657" r="7.65738" fill="#23CE6B"/>
<circle cx="1068.5" cy="892.5" r="13.5" fill="#ED33B9"/>
<circle cx="1385" cy="353" r="10" fill="#23CE6B"/>
<circle cx="168.5" cy="298.5" r="6.5" fill="#51E5FF"/>
<circle cx="1090.5" cy="712.5" r="8.5" fill="#51E5FF"/>
<circle cx="1189" cy="103" r="12" fill="#ED33B9"/>
<circle cx="737" cy="922" r="7" fill="#FFF129"/>
<circle cx="914.5" cy="687.5" r="5.5" fill="#FFF129"/>
<circle cx="1240.5" cy="454.5" r="5.5" fill="#51E5FF"/>
<circle cx="338.5" cy="605.5" r="5.5" fill="#23CE6B"/>
<circle cx="249.5" cy="753.5" r="7.5" fill="#FFF129"/>
<circle cx="793" cy="132" r="9" fill="#51E5FF"/>
<circle cx="1106" cy="568" r="6" fill="#ED33B9"/>
<circle cx="100" cy="445" r="10" fill="#ED33B9"/>
<path fill-rule="evenodd" clip-rule="evenodd" d="M499.093 148.795L515.887 132L522.185 138.298L505.391 155.093L499.093 148.795ZM493.844 189.732L510.639 172.937L492.795 155.093L499.093 148.795L523.235 172.937L516.937 179.235L500.142 196.03L493.844 189.732Z" fill="white"/>
<path fill-rule="evenodd" clip-rule="evenodd" d="M596.179 646.354L613.494 662.612L607.397 669.105L590.082 652.848L596.179 646.354ZM555.097 642.397L572.412 658.655L589.686 640.258L596.179 646.354L572.808 671.245L566.315 665.148L549 648.89L555.097 642.397Z" fill="white"/>
<path fill-rule="evenodd" clip-rule="evenodd" d="M1265.44 898.339L1253.59 918.922L1245.87 914.477L1257.72 893.894L1265.44 898.339ZM1259.87 857.445L1248.02 878.027L1269.88 890.621L1265.44 898.339L1235.85 881.301L1240.3 873.583L1252.15 853L1259.87 857.445Z" fill="white"/>
<path fill-rule="evenodd" clip-rule="evenodd" d="M659.876 436.64L648 416.071L655.713 411.618L667.589 432.187L659.876 436.64ZM698.059 452.305L686.184 431.736L664.329 444.354L659.876 436.64L689.444 419.569L693.897 427.283L705.773 447.852L698.059 452.305Z" fill="white"/>
<path fill-rule="evenodd" clip-rule="evenodd" d="M419.1 900.751L419.172 877L428.079 877.027L428.006 900.778L419.1 900.751ZM444.236 933.486L444.308 909.735L419.072 909.658L419.1 900.751L453.242 900.855L453.215 909.762L453.142 933.513L444.236 933.486Z" fill="white"/>
<path fill-rule="evenodd" clip-rule="evenodd" d="M1297.13 243.382L1290.98 266.324L1282.38 264.019L1288.52 241.077L1297.13 243.382ZM1281.2 205.305L1275.06 228.247L1299.43 234.779L1297.13 243.382L1264.15 234.545L1266.45 225.942L1272.6 203L1281.2 205.305Z" fill="white"/>
<path fill-rule="evenodd" clip-rule="evenodd" d="M877.706 795.232L901.15 799.036L899.723 807.828L876.279 804.023L877.706 795.232ZM841.427 814.91L864.871 818.715L868.914 793.805L877.706 795.232L872.236 828.933L863.444 827.506L840 823.702L841.427 814.91Z" fill="white"/>
<path fill-rule="evenodd" clip-rule="evenodd" d="M171.64 640.897L151.071 652.773L146.618 645.059L167.187 633.184L171.64 640.897ZM187.305 602.713L166.736 614.589L179.354 636.444L171.64 640.897L154.569 611.329L162.283 606.876L182.852 595L187.305 602.713Z" fill="white"/>
<path fill-rule="evenodd" clip-rule="evenodd" d="M195.895 98.8357L175.076 87.4048L179.362 79.5974L200.182 91.0283L195.895 98.8357ZM236.668 92.4323L215.848 81.0014L203.703 103.122L195.895 98.8357L212.327 68.9074L220.135 73.194L240.954 84.625L236.668 92.4323Z" fill="white"/>
<path fill-rule="evenodd" clip-rule="evenodd" d="M936.144 543.37L913.876 551.632L910.778 543.281L933.046 535.02L936.144 543.37ZM957.985 508.351L935.717 516.612L944.495 540.272L936.144 543.37L924.268 511.36L932.619 508.262L954.887 500L957.985 508.351Z" fill="white"/>
<path fill-rule="evenodd" clip-rule="evenodd" d="M923.838 95.2518L900.827 89.368L903.033 80.7389L926.044 86.6226L923.838 95.2518ZM961.73 78.8928L938.719 73.009L932.467 97.4582L923.838 95.2518L932.296 62.1735L940.925 64.3799L963.936 70.2636L961.73 78.8928Z" fill="white"/>
<path fill-rule="evenodd" clip-rule="evenodd" d="M1353.22 545.931L1341 525.563L1348.64 520.982L1360.86 541.349L1353.22 545.931ZM1391.66 560.955L1379.44 540.587L1357.8 553.569L1353.22 545.931L1382.5 528.368L1387.08 536.006L1399.3 556.373L1391.66 560.955Z" fill="white"/>
</svg>
